<?xml version="1.0" encoding="UTF-8"?>
<svg xmlns="http://www.w3.org/2000/svg" xmlns:xlink="http://www.w3.org/1999/xlink" width="500pt" height="500pt" viewBox="0 0 500 500" version="1.1">
<g id="surface20612234">
<path style=" stroke:none;fill-rule:nonzero;fill:rgb(100%,100%,100%);fill-opacity:1;" d="M 410 40 L 90 40 C 62.398438 40 40 62.398438 40 90 L 40 410 C 40 437.601562 62.398438 460 90 460 L 410 460 C 437.601562 460 460 437.601562 460 410 L 460 90 C 460 62.398438 437.601562 40 410 40 Z M 370 190 L 350 190 C 328.601562 190 320 195 320 210 L 320 240 L 370 240 L 360 290 L 320 290 L 320 440 L 270 440 L 270 290 L 230 290 L 230 240 L 270 240 L 270 210 C 270 170 290 140 330 140 C 359 140 370 150 370 150 Z M 370 190 "/>
</g>
</svg>
