<?xml version="1.0" encoding="UTF-8"?>
<svg xmlns="http://www.w3.org/2000/svg" xmlns:xlink="http://www.w3.org/1999/xlink" width="500pt" height="500pt" viewBox="0 0 500 500" version="1.1">
<g id="surface20074030">
<path style=" stroke:none;fill-rule:nonzero;fill:rgb(100%,100%,100%);fill-opacity:1;" d="M 55 70 C 30.195312 70 10 90.195312 10 115 L 10 119.257812 L 250 290 L 490 119.257812 L 490 115 C 490 90.195312 469.804688 70 445 70 Z M 63.515625 90 L 436.445312 90 L 250 220 Z M 10 140.273438 L 10 385 C 10 409.804688 30.195312 430 55 430 L 445 430 C 469.804688 430 490 409.804688 490 385 L 490 140.273438 L 430 182.96875 L 430 410 L 70 410 L 70 182.96875 Z M 10 140.273438 "/>
</g>
</svg>
