<?xml version="1.0" encoding="UTF-8"?>
<svg xmlns="http://www.w3.org/2000/svg" xmlns:xlink="http://www.w3.org/1999/xlink" width="500pt" height="500pt" viewBox="0 0 500 500" version="1.1">
<g id="surface20612365">
<path style=" stroke:none;fill-rule:evenodd;fill:rgb(100%,100%,100%);fill-opacity:1;" d="M 130 50 L 160 140 L 160 200 L 180 200 L 180 140 L 210 50 L 190 50 L 170 110 L 150 50 Z M 240 90 C 229.335938 90 224.101562 91.679688 217.578125 97.03125 C 211.328125 102.304688 209.609375 106.367188 210 120 L 210 170 C 210 179.960938 211.640625 186.523438 217.65625 192.34375 C 223.90625 198.164062 229.804688 200 240 200 C 250.664062 200 256.484375 198.164062 262.5 192.34375 C 268.75 186.757812 270 179.960938 270 170 L 270 120 C 270 111.171875 268.4375 102.8125 262.382812 97.226562 C 256.132812 91.484375 249.6875 90 240 90 Z M 290 90 L 290 180 C 290 189.726562 299.804688 200 310 200 C 320.195312 200 325.585938 194.882812 330 190 L 330 200 L 350 200 L 350 90 L 330 90 L 330 170 C 329.882812 176.835938 321.835938 180 320 180 C 317.929688 180 310 179.570312 310 170 L 310 90 Z M 240 110 C 243.007812 110 250 109.960938 250 120 L 250 170 C 250 179.6875 243.242188 180 240 180 C 236.992188 180 230 179.882812 230 170 L 230 120 C 230 111.835938 234.335938 110 240 110 Z M 100 220 C 64.0625 220 40 243.828125 40 280 L 40 375 C 40 411.171875 64.0625 440 100 440 L 400 440 C 435.9375 440 460 416.171875 460 380 L 460 280 C 460 243.828125 435.9375 220 400 220 Z M 120 260 L 180 260 L 180 280 L 160 280 L 160 400 L 140 400 L 140 280 L 120 280 Z M 260 260 L 280 260 L 280 300 C 282.304688 296.40625 285.742188 293.554688 289.023438 291.953125 C 292.226562 290.3125 295.46875 289.375 298.75 289.375 C 305.234375 289.375 310.3125 291.71875 313.789062 296.09375 C 317.265625 300.507812 320 306.367188 320 315 L 320 375 C 320 382.421875 317.5 387.03125 314.21875 390.976562 C 311.015625 394.921875 306.210938 399.921875 300 400 C 289.492188 400.117188 283.867188 394.492188 280 390 L 280 400 L 260 400 Z M 180 290 L 200 290 L 200 370 C 200 372.304688 202.695312 380.078125 210 380 C 218.125 379.921875 218.203125 372.34375 220 370 L 220 290 L 240 290 L 240 400 L 220 400 L 220 390 C 216.289062 394.375 214.375 395.742188 210.195312 397.8125 C 206.054688 400.15625 201.835938 400 197.929688 400 C 193.085938 400 187.578125 395.625 185 392.34375 C 182.695312 389.335938 180 386.25 180 380 Z M 361.992188 290 C 371.484375 290 378.164062 292.03125 383.203125 297.34375 C 388.359375 302.65625 390 308.867188 390 318.867188 L 390 350 L 350 350 L 350 365.46875 C 350 371.054688 350.742188 374.609375 352.1875 376.71875 C 353.554688 379.023438 356.328125 380.039062 360 380 C 364.0625 379.960938 366.640625 379.140625 368.007812 377.304688 C 369.414062 375.664062 370 371.015625 370 365 L 370 360 L 390 360 L 390 365.9375 C 390 376.835938 389.140625 384.960938 383.75 390.273438 C 378.671875 395.859375 370.742188 398.4375 360.351562 398.4375 C 350.859375 398.4375 343.4375 395.625 338.125 389.84375 C 332.8125 384.0625 330.039062 376.132812 330.039062 365.9375 L 330.039062 318.867188 C 330.039062 309.804688 333.203125 303.085938 339.023438 297.109375 C 343.710938 292.304688 352.5 290 361.992188 290 Z M 290 305 C 284.492188 305 280.078125 309.960938 280 315 L 280 375 C 280.078125 377.890625 284.492188 380 290 380 C 295.507812 380 300 375.742188 300 370.234375 L 300 320 C 300 310 295.507812 305 290 305 Z M 360 310 C 354.492188 310 350.078125 314.648438 350 320 L 350 330 L 370 330 L 370 320 C 370 313.867188 365.507812 310 360 310 Z M 360 310 "/>
</g>
</svg>
